<?xml version="1.0" encoding="UTF-8"?> <svg xmlns="http://www.w3.org/2000/svg" xmlns:xlink="http://www.w3.org/1999/xlink" width="316px" height="54px" viewBox="0 0 316 54"><path fill="#595757" d="M304.8,18h2.9v0.5h-1.1v3H306v-3h-1.1V18z"></path><path fill="#595757" d="M308.1,18h0.9l1,2.8h0l1-2.8h0.9v3.6h-0.6v-2.7h0l-1,2.7h-0.5l-1-2.7h0v2.7h-0.6V18z"></path><path fill="#595757" d="M17,28.4l-6.3,14.4c-0.6,1.3-0.8,2.5-0.8,3.5l0,0c0,1.5,0.5,2.6,1.4,3.5l0,0c0.9,0.8,2.2,1.4,4,1.4l0,0 c4.9,0.1,11.2-4.2,13.3-9.3l0,0l13.4-30.5c0.6-1.3,0.8-2.5,0.8-3.5l0,0c0-1.5-0.5-2.6-1.4-3.5l0,0c-0.9-0.8-2.2-1.4-4-1.4l0,0 c0,0-0.1,0-0.1,0l0,0c-4.9,0-11.1,4.3-13.2,9.3l0,0L17,28.4L5.1,24.7L6.2,22C11.6,9.8,25.7,0,37.9,0c4.5,0,8.2,1.4,10.8,3.8 c2.5,2.4,3.9,5.8,3.9,9.7c0,2.7-0.7,5.7-2,8.9L46.4,32c-1.8,4.2-4.7,8.1-8.1,11.4c-0.1,0.5-0.2,0.9-0.2,1.3c0,1.1,0.4,1.8,0.9,2.4 c0.5,0.5,1.4,0.9,2.8,0.9h5.6c1.9,0,4.1-0.9,6-2.4l6.3-14.4h-4.3c-1.2,0-1.8-0.9-1.4-2.1l0.1-0.4c0.4-1.2,1.7-2.1,2.8-2.1h4.7 l1.2-2.8c0.8-1.9,3-3.4,4.9-3.4l0.6,0c1.9,0,2.7,1.5,1.9,3.4L69,26.7h4.3c1.2,0,1.8,0.9,1.4,2.1l-0.1,0.4c-0.4,1.1-1.7,2.1-2.8,2.1 H67l-6.8,15.6c0.1,0.1,0.3,0.3,0.4,0.4c0.5,0.4,1.3,0.7,2.6,0.7h3.3c2.4,0,5.6-1.5,7.6-3.9l0.1-0.1l0.4-0.4c0.2-0.9,0.5-1.8,0.9-2.7 l1.5-3.5c3-6.8,10.8-12.2,17.6-12.2c2.1,0,3.9,0.6,5.2,1.5c0.9-1.8,2.9-3.2,4.7-3.2l0.6,0c1.9,0,2.7,1.5,1.9,3.4l-6.7,15.3 c-0.3,0.8-0.4,1.9-0.4,2.5c0,1.2,0.4,1.9,0.8,2.4c0.5,0.5,1.1,0.8,2.2,0.8c1.4,0,3.3-0.8,5-2.1c0-0.2,0.1-0.3,0.2-0.5l8.1-18.4 c0.8-1.9,3-3.4,4.9-3.4l0.6,0c1.4,0,2.2,0.9,2.2,2.1l0.1,0c1.2-0.5,2.5-0.7,3.7-0.7c2.1,0,3.9,0.8,5.1,2.2c0.4,0.4,0.7,0.9,1,1.5 l0,0.1c2.7-2.3,5.8-3.7,8.7-3.7c2.1,0,3.9,0.8,5.1,2.2c1.2,1.4,1.8,3.3,1.8,5.5c0,1.6-0.3,3.4-1,5.2l-0.4,1l0,0l-4.1,9.1l0,0.1h2.8 c2,0.1,4.8-1.4,6.6-3.8h0c0.2-0.3,0.5-0.5,0.7-0.6c0.2-0.9,0.5-1.8,0.9-2.7l1.5-3.5c3-6.8,10.8-12.2,17.6-12.2 c2.1,0,3.9,0.6,5.2,1.5c0.9-1.8,2.9-3.2,4.7-3.2l0.6,0c1.9,0,2.7,1.5,1.9,3.4l-6.7,15.3c0,0.1,0,0.2-0.1,0.3 c-0.3,0.8-0.4,1.5-0.4,2.2c0,1.2,0.4,1.9,0.8,2.4c0.5,0.5,1.1,0.8,2.2,0.8c2,0,4.8-1.4,6.6-3.8c0.1-0.1,0.1-0.1,0.2-0.2l5.1-11.6 c0,0,0,0,0,0l2.4-5.4l1.6-3.6c0,0,0,0,0,0l4.2-9.4h-61.2c-1,0-1.8-0.7-1.8-1.7c0-0.3,0-0.5,0.1-0.8l0.1-0.4c0.5-1.3,1.8-2.3,3.1-2.3 h171.7c1,0,1.8,0.7,1.8,1.7c0,0.3,0,0.5-0.1,0.8l-0.1,0.4c-0.5,1.3-1.8,2.3-3.1,2.3H209.5l-4.1,9.4c0,0,0,0,0,0l-9.3,21.1 c-0.1,0.2-0.2,0.5-0.4,0.7c0.1,1,0.4,1.6,0.8,2.1c0.5,0.5,1.1,0.8,2.2,0.8c2,0.1,4.8-1.4,6.6-3.8c0.2-0.3,0.5-0.5,0.7-0.6 c0.2-0.9,0.5-1.8,0.9-2.7l1.5-3.5c3-6.8,10.8-12.2,17.6-12.2c4.9,0,7.9,2.9,8.1,7h3.4c2.2,0,4.8-1.1,6.8-2.9l1.1-2.4 c0.8-1.9,3-3.4,4.9-3.4l0.6,0c1.6,0,2.5,1.2,2.1,2.7c1.8-0.7,3.6-1,5.4-1.1c2.5,0,4.6,0.8,6,2.1c1.4,1.3,2.2,3.2,2.2,5.4 c0,1.5-0.4,3.2-1.1,4.9l-0.1,0.3L260.8,48h5.8c2,0.1,4.8-1.4,6.6-3.8v0c0.1-0.1,0.2-0.2,0.3-0.3c-1.2-2.3-1.8-5.1-1.6-7.9 c0.8-8.9,9.3-16.1,19-16.1c9.7,0,17,7.2,16.2,16.1l-0.2,0.3c-3.6,2.6-12.3,4.4-30.9,3.7c0,0,9.3,9,28.6,3.1l-0.1,0.1 c-3.4,5.3-9.6,8.9-16.5,8.9c-4.4,0-8.3-1.5-11.2-4c-2.7,3-6.3,5.2-10.3,5.2h-8c-1.2,0-2.5-0.4-3.4-1.3c-1-0.9-1.4-2.2-1.4-3.4 c0-0.8,0.2-1.7,0.5-2.4l1-2.3c0-0.1,0.1-0.2,0.1-0.3l-0.1-0.1l4.6-10.4l0.2-0.4c0.3-0.7,0.4-1.4,0.4-2c0-1.7-1-2.7-3.1-2.7 c-2.8,0-6.4,2.4-7.6,5.3l-5.4,12.4v0l0,0l-1.8,4.2c-0.8,1.9-3,3.4-4.9,3.4l-0.6,0c-1.9,0-2.7-1.5-1.9-3.4l6.1-14 c-1.3,0.4-2.6,0.6-3.9,0.6h-4.1c-0.1,0.3-0.3,0.7-0.4,1l-2.7,6.2c-3,6.8-9.6,9.4-16.3,9.4h0c-3.2,0-5.6-1.2-6.9-3.3 c-2.4,2-5.2,3.3-8.3,3.3c0,0,0,0-0.1,0c-2.3,0-4.5-0.9-6-2.5c-0.5-0.5-0.9-1.1-1.2-1.7c-2.5,2.5-5.8,4.2-9.3,4.2H182 c-2.3,0-4.5-0.9-6-2.5c-0.8-0.8-1.4-1.9-1.7-3c-3.6,3.3-8.3,5.4-12.5,5.4c-3.2,0-5.6-1.2-6.9-3.3c-2.4,2-5.2,3.3-8.3,3.3h-5 c0,0,0,0,0,0c-1.2,0-2.5-0.4-3.4-1.3c-1-0.9-1.4-2.2-1.4-3.4c0-0.7,0.2-1.4,0.4-2.1l6.9-15.9l0-0.2c-0.1-1.6-0.9-2.4-2.4-2.5 c-2.2,0-5.1,2.4-6.2,5.3L128,49.9c-0.8,1.9-3,3.4-4.9,3.4l-0.6,0c-1.9,0-2.7-1.5-1.9-3.4l8.5-19.4l0-0.1c-0.1-1.6-0.9-2.5-2.4-2.5 c-2.2,0-5.1,2.4-6.2,5.3v0l-0.1,0.2l-5.2,11.9c-0.4,0.8-1,1.6-1.8,2.2c-2.7,3.3-6.5,5.7-10.7,5.8h-0.1c-2.3,0-4.5-0.9-6-2.5 c-0.8-0.8-1.3-1.7-1.7-2.8l-1.1,0.7c-3.4,2.8-7.6,4.5-11.5,4.5c-3.2,0-5.6-1.2-6.9-3.3c-2.6,2-5.7,3.3-9,3.3h-3.3 c-2.2,0-4.2-0.6-5.8-1.9c-0.5-0.4-0.9-0.8-1.2-1.2c-2.5,1.9-5.6,3.1-8.7,3.1h-5.6c0,0,0,0,0,0c-2.5,0-4.8-0.8-6.4-2.4 c-1-0.9-1.7-2.1-2.1-3.4c-5.7,4-12.3,6.5-18.5,6.5c-4.5,0-8.2-1.4-10.8-3.8C1.4,47.8,0,44.5,0,40.5c0-2.7,0.7-5.7,2-8.9l3-6.9 L17,28.4z M165.3,33.3l-5.4,12.4c-0.3,0.7-0.5,1.4-0.5,2l0,0c0,1.7,1,2.7,3.1,2.8l0,0c2.8,0,6.4-2.4,7.6-5.3l0,0l5.4-12.4 c0.3-0.7,0.5-1.4,0.5-2l0,0c0-1.7-1-2.7-3.1-2.8l0,0c0,0,0,0-0.1,0l0,0C170.1,28,166.6,30.5,165.3,33.3L165.3,33.3z M217.5,33.3 l-5.4,12.4c-0.3,0.7-0.5,1.4-0.5,2l0,0c0,1.7,1,2.7,3.1,2.8l0,0c2.8,0,6.4-2.4,7.6-5.3l0,0l5.4-12.4c0.3-0.7,0.5-1.4,0.5-2l0,0 c0-1.7-1-2.7-3.1-2.8l0,0c0,0,0,0-0.1,0l0,0C222.3,28,218.7,30.4,217.5,33.3L217.5,33.3z M86,33.3l-5.4,12.4c-0.3,0.7-0.5,1.4-0.5,2 l0,0c0,1.7,1,2.7,3.1,2.8l0,0c2.8,0,6.4-2.4,7.6-5.3l0,0l5.4-12.4c0.3-0.7,0.5-1.4,0.5-2l0,0c0-1.7-1-2.7-3.1-2.8l0,0c0,0,0,0-0.1,0 l0,0C90.7,28,87.2,30.5,86,33.3L86,33.3z M283.3,29.9c-1.1,0-2,0.9-2,2c0,1.1,0.9,2,2,2c1.1,0,2-0.9,2-2 C285.3,30.8,284.4,29.9,283.3,29.9z M299.9,28.7c-1.1,0-1.9,0.9-1.9,1.9s0.9,1.9,1.9,1.9c1.1,0,1.9-0.9,1.9-1.9 S300.9,28.7,299.9,28.7z"></path></svg> 